<svg version="1.1" xmlns="http://www.w3.org/2000/svg" x="0px" y="0px" viewBox="0 0 256 256" enable-background="new 0 0 256 256" xmlns:bx="https://boxy-svg.com">
  <defs>
    <bx:export>
      <bx:file format="svg"/>
    </bx:export>
  </defs>
  <g>
    <g>
      <g>
        <path fill="#000000" d="M 209.1 10.2 C 200.8 11.2 188.916 14.836 178.7 19.3 C 173.852 21.418 174.01 20.935 172.533 21.73 C 170.928 22.576 170.27 22.657 168.748 23.752 C 165.399 25.645 167.292 24.41 164.051 26.323 C 160.606 28.356 161.387 28.094 159.487 28.994 C 156.287 30.494 154.771 31.04 153.291 32.327 C 153.025 32.558 151.577 33.063 148.653 35.274 L 144.2 38.4 L 140 41.3 C 137.7 42.9 133.5 46 130.6 48.1 C 125.5 51.9 124.9 52.8 127.6 52.8 C 128.1 52.8 130.4 53.4 132.7 54.2 L 136.9 55.6 L 143.1 51.2 L 149.3 46.8 L 153.568 43.817 C 160.186 40.127 157.145 41.991 162.35 38.675 C 168.001 35.076 166.518 36.447 170.732 34.419 L 178.9 29.8 L 184.1 27.5 C 207 17.8 223.9 17 231.4 25.3 C 238.1 32.7 238.2 47.6 231.7 67.3 C 223.5 92.2 207 119.3 183.3 147.1 C 172.4 159.8 153.5 178.2 140 189.2 L 136.2 192.3 L 133.9 190.6 C 129.2 187 124.4 185.4 118 185.4 C 110.8 185.4 104.8 187.9 99.6 193 C 93.3 199.3 90.6 209 92.8 217.4 C 93.2 219 93.5 220.3 93.4 220.4 C 92.9 220.9 79.3 227.1 74.9 228.8 C 55.6 236.3 39.2 238.2 30 234 C 19.1 229.1 16.8 215.6 23.5 194.8 C 25.2 189.7 28.6 181.2 31.2 176.2 L 32.6 173.4 L 32.705 173.3 C 31.742 172.216 31.826 175.05 32.647 173.421 C 40.792 157.259 48.4 148.21 50.084 144.726 C 51.617 141.554 50.672 145.135 49.084 142.573 L 50.1 144.5 L 52.9 140.5 L 55.7 136.6 L 54.4 132.4 C 53.7 130.1 52.9 127.5 52.6 126.5 L 52.2 124.9 L 48.2 130.2 C 46 133.1 43.7 136.3 43.1 137.3 L 42 139 L 42.012 139 C 41.526 140.416 43.491 136.73 42.048 138.992 C 38.404 144.706 31.545 154 24.024 168.297 C 21.975 172.191 25.981 164.042 23.949 168.261 L 24 168.3 L 21.3 173.9 C 3.2 211.8 6.9 238.2 31.3 244.8 C 36.2 246.2 48.9 246 56.2 244.6 C 67.1 242.4 78.5 238.4 91.6 232.1 L 98.8 228.7 L 100.6 230.4 C 104.6 234.2 110 236.6 115.9 237 C 128.3 237.9 139.4 230.2 143 218.1 C 144.1 214.2 144 207.7 142.8 203.6 C 142 200.9 141.9 200.2 142.5 199.7 C 142.8 199.4 145.8 197 149 194.3 C 192 159 227.5 111.2 240.9 71 C 244.8 59.4 246 52.7 246 42.7 C 246 33.2 245.5 30.5 242.6 24.4 C 239.4 17.9 232.7 12.6 225.2 10.9 C 221.1 10 213.7 9.7 209.1 10.2 Z M 162.517 33.519 C 166.217 35.319 164.796 30.205 162.596 33.505 C 160.696 36.205 165.421 33.541 162.521 33.541 C 159.621 33.541 164.3 36.252 162.5 33.452 C 161 31.352 160.881 35.623 162.481 33.423 C 164.581 30.423 159.117 31.819 162.517 33.519 Z M 37.505 154.332 C 41.205 156.232 40.558 147.716 38.958 151.416 C 37.558 154.516 43.232 150.816 39.832 150.816 C 35.332 150.816 39.142 156.684 39.142 152.184 C 39.142 146.584 32.705 151.832 37.505 154.332 Z M 125 196.7 C 128 198.2 130.9 201 132.6 204.2 C 133.8 206.5 134 207.3 134 211.4 C 134 215.3 133.8 216.4 132.9 218.2 C 131.1 221.5 128.1 224.5 125 226 C 122.7 227.2 121.6 227.4 118.3 227.4 C 111.6 227.4 106.6 224.3 103.8 218.4 C 102.4 215.5 102.2 214.7 102.2 211.2 C 102.2 208.3 102.5 206.7 103.3 205 C 105.1 201 108.9 197.5 113.2 195.9 C 115.8 195 122.1 195.3 125 196.7 Z"/>
        <path fill="#000000" d="M103.6,61.4c-21.5,4.3-38,20.9-42.2,42.5c-0.9,5-0.9,14.3,0,19.3c4.1,21.8,21.2,38.7,42.8,42.5c5.1,0.9,13.8,0.9,18.7,0.1c20.2-3.6,36.5-18.8,42-38.9c1.1-4.3,1.3-5.6,1.3-13.3c0-7.9,0-9-1.3-13.4c-5.6-20.3-21.7-35.2-41.9-38.7C117.9,60.5,108.2,60.5,103.6,61.4z"/>
      </g>
    </g>
  </g>
</svg>